<svg xmlns="http://www.w3.org/2000/svg">

<symbol id="fingerprint" viewBox="0 0 24 24">
<path
      d="M17.81 4.47c-.08 0-.16-.02-.23-.06C15.66 3.42 14 3 12.01 3c-1.98 0-3.86.47-5.57 1.41-.24.13-.54.04-.68-.2-.13-.24-.04-.55.2-.68C7.82 2.52 9.86 2 12.01 2c2.13 0 3.99.47 6.03 1.52.25.13.34.43.21.67-.09.18-.26.28-.44.28zM3.5 9.72c-.1 0-.2-.03-.29-.09-.23-.16-.28-.47-.12-.7.99-1.4 2.25-2.5 3.75-3.27C9.98 4.04 14 4.03 17.15 5.65c1.5.77 2.76 1.86 3.75 3.25.16.22.11.54-.12.7-.23.16-.54.11-.7-.12-.9-1.26-2.04-2.25-3.39-2.94-2.87-1.47-6.54-1.47-9.4.01-1.36.7-2.5 1.7-3.4 2.96-.08.14-.23.21-.39.21zm6.25 12.07c-.13 0-.26-.05-.35-.15-.87-.87-1.34-1.43-2.01-2.64-.69-1.23-1.05-2.73-1.05-4.34 0-2.97 2.54-5.39 5.66-5.39s5.66 2.42 5.66 5.39c0 .28-.22.5-.5.5s-.5-.22-.5-.5c0-2.42-2.09-4.39-4.66-4.39-2.57 0-4.66 1.97-4.66 4.39 0 1.44.32 2.77.93 3.85.64 1.15 1.08 1.64 1.85 2.42.19.2.19.51 0 .71-.11.1-.24.15-.37.15zm7.17-1.85c-1.19 0-2.24-.3-3.1-.89-1.49-1.01-2.38-2.65-2.38-4.39 0-.28.22-.5.5-.5s.5.22.5.5c0 1.41.72 2.74 1.94 3.56.71.48 1.54.71 2.54.71.24 0 .64-.03 1.04-.1.27-.05.53.13.58.41.05.27-.13.53-.41.58-.57.11-1.07.12-1.21.12zM14.91 22c-.04 0-.09-.01-.13-.02-1.59-.44-2.63-1.03-3.72-2.1-1.4-1.39-2.17-3.24-2.17-5.22 0-1.62 1.38-2.94 3.08-2.94 1.7 0 3.08 1.32 3.08 2.94 0 1.07.93 1.94 2.08 1.94s2.08-.87 2.08-1.94c0-3.77-3.25-6.83-7.25-6.83-2.84 0-5.44 1.58-6.61 4.03-.39.81-.59 1.76-.59 2.8 0 .78.07 2.01.67 3.61.1.26-.03.55-.29.64-.26.1-.55-.04-.64-.29-.49-1.31-.73-2.61-.73-3.96 0-1.2.23-2.29.68-3.24 1.33-2.79 4.28-4.6 7.51-4.6 4.55 0 8.25 3.51 8.25 7.83 0 1.62-1.38 2.94-3.08 2.94s-3.08-1.32-3.08-2.94c0-1.07-.93-1.94-2.08-1.94s-2.08.87-2.08 1.94c0 1.71.66 3.31 1.87 4.51.95.94 1.86 1.46 3.27 1.85.27.07.42.35.35.61-.05.23-.26.38-.47.38z"
    >
</path>
</symbol>

<symbol id="github" viewBox="0 0 16 16">
    <path
      fill-rule="evenodd"
      d="M8 0C3.58 0 0 3.58 0 8c0 3.54 2.29 6.53 5.47 7.59.4.07.55-.17.55-.38 0-.19-.01-.82-.01-1.49-2.01.37-2.53-.49-2.69-.94-.09-.23-.48-.94-.82-1.13-.28-.15-.68-.52-.01-.53.63-.01 1.08.58 1.23.82.72 1.21 1.87.87 2.33.66.07-.52.28-.87.51-1.07-1.78-.2-3.64-.89-3.64-3.95 0-.87.31-1.59.82-2.15-.08-.2-.36-1.02.08-2.12 0 0 .67-.21 2.2.82.64-.18 1.32-.27 2-.27.68 0 1.36.09 2 .27 1.53-1.04 2.2-.82 2.2-.82.44 1.1.16 1.92.08 2.12.51.56.82 1.27.82 2.15 0 3.07-1.87 3.75-3.65 3.95.29.25.54.73.54 1.48 0 1.07-.01 1.93-.01 2.2 0 .21.15.46.55.38A8.013 8.013 0 0016 8c0-4.42-3.58-8-8-8z"
    />
</symbol>

<symbol id="instagram" viewBox="0 0 512 512"><path
      d="m75 512h362c41.355469 0 75-33.644531 75-75v-362c0-41.355469-33.644531-75-75-75h-362c-41.355469 0-75 33.644531-75 75v362c0 41.355469 33.644531 75 75 75zm-45-437c0-24.8125 20.1875-45 45-45h362c24.8125 0 45 20.1875 45 45v362c0 24.8125-20.1875 45-45 45h-362c-24.8125 0-45-20.1875-45-45zm0 0"
    /><path
      d="m256 391c74.4375 0 135-60.5625 135-135s-60.5625-135-135-135-135 60.5625-135 135 60.5625 135 135 135zm0-240c57.898438 0 105 47.101562 105 105s-47.101562 105-105 105-105-47.101562-105-105 47.101562-105 105-105zm0 0"
    /><path
      d="m406 151c24.8125 0 45-20.1875 45-45s-20.1875-45-45-45-45 20.1875-45 45 20.1875 45 45 45zm0-60c8.269531 0 15 6.730469 15 15s-6.730469 15-15 15-15-6.730469-15-15 6.730469-15 15-15zm0 0"
    />
</symbol>

<symbol id="vk" viewBox="1 -104 511.99902 511"><path
      d="m456.738281 202.101562-.277343-.257812c-4.371094-4.035156-17.761719-17.066406-22.277344-22.761719-5.300782-7.105469-4.078125-11.761719-.105469-18.738281 5.019531-8.816406 15.078125-22.339844 25.722656-36.660156 34.09375-45.851563 56.105469-77.59375 51.574219-100.140625l-2.441406-12.042969-125.910156.054688c-.441407 1.1875-7.011719 30.050781-34.738282 79.199218-20.105468 35.636719-33.292968 46.832032-37.9375 48.808594l-.71875-.21875c-1.511718-1.867188-4.152344-6.90625-5.238281-19.894531-1.132813-13.605469-.128906-30.078125.84375-46.007813 1.136719-18.679687 2.117187-34.8125-.230469-46.355468l-3.824218-18.804688c-4.621094-.738281-21.539063-7.265625-68.675782-7.761719-40.808594-.417969-52.796875 5.476563-58.683594 10.671875l-19.472656 17.183594 24.613282 8.28125c9.367187 3.152344 12.476562 6.789062 15.027343 24.816406 1.664063 11.75 2.535157 31.496094.738281 49.125-2.582031 25.277344-8.773437 29.980469-9.09375 30.230469-1.066406-.363281-10.109374-4.320313-25.808593-37.511719-10.890625-23.019531-20.4375-50.25-27.414063-70.132812-7.984375-22.769532-6.546875-17.921875-10.597656-28.679688l-121.8125-.003906 7.882812 20.390625c32.863282 85.089844 63.015626 151.539063 103.367188 199.265625 44.582031 52.730469 99.988281 80.339844 174.621094 80.339844h15v-15c0-14.023438 1.160156-24.121094 3.648437-31.777344 1.519531-4.664062 3.539063-8.519531 5.660157-12.5625 3.148437-5.953125 6.226562-8.503906 7.90625-8.882812 1.523437-.347657 4.203124.769531 7.171874 2.984374 8.523438 6.355469 15.289063 14.707032 22.453126 23.550782 10.335937 12.761718 21.023437 25.953125 37.980468 34.589844 9.265625 4.71875 26.25 7.101562 35.597656 7.101562 2.472657 0 90.601563-.003906 90.710938-.003906l-.644531-15.617188c-.960938-23.351562-19.339844-52.550781-54.617188-86.777344zm-34.867187 72.394532h-.242188c-6.445312.105468-18.746094-2.007813-22.324218-3.828125-11.273438-5.742188-19.152344-15.472657-28.28125-26.738281-8.011719-9.894532-16.296876-20.125-27.832032-28.722657-9.328125-6.957031-17.800781-8.992187-24.527344-8.992187-2.6875 0-5.101562.324218-7.171874.792968-7.808594 1.757813-18.976563 7.375-27.855469 24.167969-2.503907 4.777344-5.34375 10.1875-7.644531 17.265625-2.410157 7.40625-3.910157 15.636719-4.625 25.648438-56.242188-3.195313-100.128907-25.445313-137.207032-69.300782-34.472656-40.777343-61.59375-97.8125-90.316406-170.300781 2.078125 0 54.152344.007813 57.226562.007813.941407 2.644531 1.957032 5.542968 3.035157 8.613281 7.519531 21.449219 17.820312 50.820313 29.957031 75.867187 17.378906 35.867188 33.25 51.863282 51.457031 51.863282 9.089844 0 17.242188-3.851563 23.574219-11.144532 9.027344-10.394531 14.269531-27.550781 16.027344-52.453124 1.386718-19.636719.097656-39.195313-1.425782-49.972657-1.257812-8.867187-3.050781-18.175781-7.425781-26.515625 18.644531-.839844 43.609375.488282 59.425781 2.757813 1.4375 7.828125.5 23.214843-.40625 38.101562-2.191406 35.960938-4.453124 73.070313 14.582032 90.433594 3.347656 3.054687 6.898437 4.691406 7 4.757813l9.6875 2.972656c3.738281-1.152344 25.390625 9.832031 66.390625-61.71875 13.136719-22.925782 25.367187-49.34375 31.953125-66.597656 15.273437-.03125 67.308594.027343 73.421875.035156-8.660157 19.058594-29.183594 46.242187-42.597657 64.285156-11.695312 15.726562-21.792968 29.308594-27.71875 39.714844-11.007812 19.332031-9.15625 36.5625 2.308594 51.761718l.179688.234376c6.398437 8.144531 22.199218 23.222656 25.476562 26.261718 23.742188 23.050782 35.183594 39.609375 40.628906 50.738282h-54.730468zm0 0"
    />
</symbol>

    <symbol id="whatsapp" viewBox="0 0 24 24">
    <g><rect fill="none" height="24" width="24" y="0" /></g><g><g><g><path
            d="M19.05,4.91C17.18,3.03,14.69,2,12.04,2c-5.46,0-9.91,4.45-9.91,9.91c0,1.75,0.46,3.45,1.32,4.95L2.05,22l5.25-1.38 c1.45,0.79,3.08,1.21,4.74,1.21h0c0,0,0,0,0,0c5.46,0,9.91-4.45,9.91-9.91C21.95,9.27,20.92,6.78,19.05,4.91z M12.04,20.15 L12.04,20.15c-1.48,0-2.93-0.4-4.2-1.15l-0.3-0.18l-3.12,0.82l0.83-3.04l-0.2-0.31c-0.82-1.31-1.26-2.83-1.26-4.38 c0-4.54,3.7-8.24,8.24-8.24c2.2,0,4.27,0.86,5.82,2.42c1.56,1.56,2.41,3.63,2.41,5.83C20.28,16.46,16.58,20.15,12.04,20.15z M16.56,13.99c-0.25-0.12-1.47-0.72-1.69-0.81c-0.23-0.08-0.39-0.12-0.56,0.12c-0.17,0.25-0.64,0.81-0.78,0.97 c-0.14,0.17-0.29,0.19-0.54,0.06c-0.25-0.12-1.05-0.39-1.99-1.23c-0.74-0.66-1.23-1.47-1.38-1.72c-0.14-0.25-0.02-0.38,0.11-0.51 c0.11-0.11,0.25-0.29,0.37-0.43c0.12-0.14,0.17-0.25,0.25-0.41c0.08-0.17,0.04-0.31-0.02-0.43c-0.06-0.12-0.56-1.34-0.76-1.84 c-0.2-0.48-0.41-0.42-0.56-0.43C8.86,7.33,8.7,7.33,8.53,7.33c-0.17,0-0.43,0.06-0.66,0.31C7.65,7.89,7.01,8.49,7.01,9.71 c0,1.22,0.89,2.4,1.01,2.56c0.12,0.17,1.75,2.67,4.23,3.74c0.59,0.26,1.05,0.41,1.41,0.52c0.59,0.19,1.13,0.16,1.56,0.1 c0.48-0.07,1.47-0.6,1.67-1.18c0.21-0.58,0.21-1.07,0.14-1.18S16.81,14.11,16.56,13.99z"
          /></g></g></g>
    </symbol>

    <symbol id="youtube" viewBox="0 -61 512 512"><path
      d="m75 390h362c41.355469 0 75-33.644531 75-75v-240c0-41.355469-33.644531-75-75-75h-362c-41.355469 0-75 33.644531-75 75v240c0 41.355469 33.644531 75 75 75zm-45-315c0-24.8125 20.1875-45 45-45h362c24.8125 0 45 20.1875 45 45v240c0 24.8125-20.1875 45-45 45h-362c-24.8125 0-45-20.1875-45-45zm0 0"
    /><path
      d="m181 94.507812v203.898438l180.5-103.621094zm30 50.984376 89.5 49.722656-89.5 51.378906zm0 0"
    /></symbol>

    <symbol id="phone" viewBox="0 0 24 24"><path
      d="M0 0h24v24H0V0z"
      fill="none"
    /><path
      d="M6.54 5c.06.89.21 1.76.45 2.59l-1.2 1.2c-.41-1.2-.67-2.47-.76-3.79h1.51m9.86 12.02c.85.24 1.72.39 2.6.45v1.49c-1.32-.09-2.59-.35-3.8-.75l1.2-1.19M7.5 3H4c-.55 0-1 .45-1 1 0 9.39 7.61 17 17 17 .55 0 1-.45 1-1v-3.49c0-.55-.45-1-1-1-1.24 0-2.45-.2-3.57-.57-.1-.04-.21-.05-.31-.05-.26 0-.51.1-.71.29l-2.2 2.2c-2.83-1.45-5.15-3.76-6.59-6.59l2.2-2.2c.28-.28.36-.67.25-1.02C8.7 6.45 8.5 5.25 8.5 4c0-.55-.45-1-1-1z"
    /></symbol>
    <symbol id="mail" viewBox="0 0 24 24"><path
      d="M0 0h24v24H0V0z"
      fill="none"
    /><path
      d="M22 6c0-1.1-.9-2-2-2H4c-1.1 0-2 .9-2 2v12c0 1.1.9 2 2 2h16c1.1 0 2-.9 2-2V6zm-2 0l-8 5-8-5h16zm0 12H4V8l8 5 8-5v10z"
    /></symbol>

    <symbol id="link" viewBox="0 0 24 24"><path d="M0 0h24v24H0V0z" fill="none"/><path d="M17 7h-4v2h4c1.65 0 3 1.35 3 3s-1.35 3-3 3h-4v2h4c2.76 0 5-2.24 5-5s-2.24-5-5-5zm-6 8H7c-1.65 0-3-1.35-3-3s1.35-3 3-3h4V7H7c-2.76 0-5 2.24-5 5s2.24 5 5 5h4v-2zm-3-4h8v2H8z"/></symbol>

</svg>
